<svg xmlns="http://www.w3.org/2000/svg" viewBox="0 0 526.19 75.15"><defs><style>.cls-1{fill:#e63462;}</style></defs><g id="Layer_2" data-name="Layer 2"><g id="Layer_1-2" data-name="Layer 1"><rect class="cls-1" x="80" y="46.8" width="13.48" height="27.36" rx="2.83"/><rect class="cls-1" x="60" y="24.8" width="13.48" height="49.35" rx="2.83"/><rect class="cls-1" x="40" y="5.79" width="13.48" height="68.36" rx="2.83"/><rect class="cls-1" x="20" y="24.8" width="13.48" height="49.35" rx="2.83"/><rect class="cls-1" y="46.79" width="13.48" height="27.36" rx="2.83"/><path class="cls-1" d="M118.51,9.36A2,2,0,0,1,119,7.85a2,2,0,0,1,1.37-.56h42.75q2.07,0,2.07,2.16v7.83a2.22,2.22,0,0,1-.54,1.46,1.86,1.86,0,0,1-1.53.66H131.61v18h7.33c1.53,0,3.12,0,4.77,0l4.77,0h7.34a2.16,2.16,0,0,1,1.39.47,1.9,1.9,0,0,1,.59,1.55v7.66a2.33,2.33,0,0,1-.52,1.46,1.73,1.73,0,0,1-1.42.65H131.61v23c0,1.26-.71,1.89-2.12,1.89h-9.18a1.68,1.68,0,0,1-1.8-1.89Z"/><path class="cls-1" d="M170,73.49c-.45,0-.67-.18-.67-.54a1.71,1.71,0,0,1,.22-.68v-.14a1.33,1.33,0,0,1,.13-.53,4,4,0,0,1,.28-.45l18.63-26.6-4.66-6.73-4.23-6.05L175.66,26l-4.16-6a5.16,5.16,0,0,1-.59-1,2.14,2.14,0,0,1-.22-.86,1,1,0,0,1,.47-.88,2.88,2.88,0,0,1,1.6-.34h8.18a8.44,8.44,0,0,1,2.1.21,3.54,3.54,0,0,1,1.35.65,5,5,0,0,1,1,1.17l1.15,1.71Q189,24.35,191.3,28t4.63,7.38c.81-1.17,1.66-2.46,2.54-3.85s1.78-2.82,2.68-4.28L203.81,23q1.31-2.12,2.47-3.92a6.26,6.26,0,0,1,1.4-1.64A2.6,2.6,0,0,1,209.3,17h10a2.75,2.75,0,0,1,1.35.3,1,1,0,0,1,.54.92,2.57,2.57,0,0,1-.58,1.44c-1.48,2.07-2.89,4.08-4.26,6s-2.74,3.92-4.14,5.89l-4.3,6.13c-1.46,2.1-3,4.36-4.72,6.79q4.64,6.57,9.2,13.12t9.21,13.12a10.05,10.05,0,0,1,.63,1.1,2.45,2.45,0,0,1,.27,1.06,1.12,1.12,0,0,1-.45.89,2.53,2.53,0,0,1-1.58.37H209.93a2.55,2.55,0,0,1-1.62-.5,5.77,5.77,0,0,1-1.26-1.49l-1.17-1.84q-2.53-4.1-5-8.14T195.93,54L186,70.38A19.88,19.88,0,0,1,184.14,73a3.32,3.32,0,0,1-1.26.79,6.29,6.29,0,0,1-1.53.31,14.61,14.61,0,0,1-1.62,0c-.54,0-1.07,0-1.58,0h-7.24A.88.88,0,0,1,170,73.49Z"/><path class="cls-1" d="M268.12,25.11a2.13,2.13,0,0,1-1.08-.29,11.46,11.46,0,0,1-1.13-.79l-.09,0a22.47,22.47,0,0,0-2.2-1.89,22.72,22.72,0,0,0-3-1.94A22,22,0,0,0,257,18.63a12.44,12.44,0,0,0-3.9-.63,16.15,16.15,0,0,0-4.45.56,10.37,10.37,0,0,0-3.24,1.53,6.67,6.67,0,0,0-2,2.28,6,6,0,0,0-.68,2.79,4.26,4.26,0,0,0,1,2.83,9.31,9.31,0,0,0,2.74,2.16,26.54,26.54,0,0,0,4,1.73q2.25.79,4.73,1.56,2.83.86,5.62,1.84a51.12,51.12,0,0,1,5.34,2.23A37.61,37.61,0,0,1,271,40.25a18.11,18.11,0,0,1,3.81,3.47,16,16,0,0,1,2.52,4.36,15.21,15.21,0,0,1,.92,5.42,19.54,19.54,0,0,1-2,8.87,20.13,20.13,0,0,1-5.47,6.77,24.82,24.82,0,0,1-8.19,4.32A32.72,32.72,0,0,1,252.46,75a29.82,29.82,0,0,1-6.89-.81A33.42,33.42,0,0,1,239,71.87a35.41,35.41,0,0,1-6-3.58,30,30,0,0,1-5-4.71v.05l-.09-.18a3.28,3.28,0,0,1-1-2.07,1.79,1.79,0,0,1,.27-.94,5.35,5.35,0,0,1,.81-1L229.51,58c.45-.39.93-.82,1.44-1.3a19.78,19.78,0,0,1,1.53-1.31,17.06,17.06,0,0,1,1.42-1,2.13,2.13,0,0,1,1-.4,1.9,1.9,0,0,1,1.17.4,8.44,8.44,0,0,1,.9.77l.18.18h0a31.21,31.21,0,0,0,3.53,2.83,37,37,0,0,0,4,2.41,24,24,0,0,0,4.12,1.66,13.31,13.31,0,0,0,3.84.61,16.52,16.52,0,0,0,4.64-.63,11.84,11.84,0,0,0,3.73-1.78,8.47,8.47,0,0,0,2.48-2.76,7.3,7.3,0,0,0,.9-3.61,5.16,5.16,0,0,0-1.17-3.39,10.66,10.66,0,0,0-3.06-2.48A24,24,0,0,0,256,46.35q-2.37-.76-4.75-1.44a71.82,71.82,0,0,1-9.61-3.6A29.4,29.4,0,0,1,234.73,37a16.29,16.29,0,0,1-4.12-5.4,16.06,16.06,0,0,1-1.37-6.73,17.05,17.05,0,0,1,1.69-7.63,16.87,16.87,0,0,1,4.79-5.89,23.1,23.1,0,0,1,7.47-3.83A32.6,32.6,0,0,1,253,6.12a28.79,28.79,0,0,1,8.33,1.28,32.69,32.69,0,0,1,7.83,3.54c.72.44,1.45,1,2.2,1.52s1.44,1.15,2.07,1.74a12,12,0,0,1,1.56,1.71,2.59,2.59,0,0,1,.6,1.42,2.54,2.54,0,0,1-.27,1.1,4.33,4.33,0,0,1-.67,1l-1.35,1.44v-.05c-.45.49-.92,1-1.4,1.49a16.52,16.52,0,0,1-1.44,1.37c-.48.41-.91.75-1.3,1A1.85,1.85,0,0,1,268.12,25.11Z"/><path class="cls-1" d="M283.73,45.63a29.42,29.42,0,0,1,8.68-21,30,30,0,0,1,6-4.59,30.69,30.69,0,0,1,7-3,29.76,29.76,0,0,1,15.67,0,29.58,29.58,0,0,1,13,7.56,29.36,29.36,0,0,1,8.67,21,29.13,29.13,0,0,1-4,14.92,30.65,30.65,0,0,1-4.63,6,29.36,29.36,0,0,1-13,7.58,29.49,29.49,0,0,1-15.67,0,29.84,29.84,0,0,1-7-3,29,29,0,0,1-6-4.61,30.27,30.27,0,0,1-4.63-6,29.27,29.27,0,0,1-4-14.92Zm12.69,0a18.56,18.56,0,0,0,1.26,6.82,17.26,17.26,0,0,0,3.51,5.6,16.71,16.71,0,0,0,5.34,3.78,16.08,16.08,0,0,0,6.72,1.4,15.66,15.66,0,0,0,6.6-1.4,16.4,16.4,0,0,0,5.24-3.78,17.26,17.26,0,0,0,3.44-5.6,19.32,19.32,0,0,0,0-13.62,18,18,0,0,0-3.44-5.69,16.77,16.77,0,0,0-5.24-3.91,15,15,0,0,0-6.6-1.46,15.37,15.37,0,0,0-6.72,1.46,17.07,17.07,0,0,0-5.34,3.91,18,18,0,0,0-3.51,5.69A18.65,18.65,0,0,0,296.42,45.63Z"/><path class="cls-1" d="M400.1,72.36a.94.94,0,0,1-.33.77,2.16,2.16,0,0,1-.84.38,5.91,5.91,0,0,1-1.08.13l-1,0h-4.55a2.25,2.25,0,0,1-1.93-.84,4.69,4.69,0,0,1-.86-1.91L389,66.83a16.19,16.19,0,0,1-6,5.28,20,20,0,0,1-4.65,1.69,25.8,25.8,0,0,1-6,.63,22.18,22.18,0,0,1-9.45-1.91,19.81,19.81,0,0,1-6.86-5.22,23,23,0,0,1-4.21-7.81,31.54,31.54,0,0,1-1.44-9.67v-30a3.49,3.49,0,0,1,.77-2.45,2.81,2.81,0,0,1,2.2-.83h6.84a3.23,3.23,0,0,1,2.41.67,3.58,3.58,0,0,1,.61,2.39v30a15.09,15.09,0,0,0,.74,4.66,12.51,12.51,0,0,0,2.23,4.07,10.94,10.94,0,0,0,3.71,2.88,11.81,11.81,0,0,0,5.2,1.08,14.16,14.16,0,0,0,4.32-.72,12.57,12.57,0,0,0,4.09-2.2,12.16,12.16,0,0,0,3.06-3.72,10.67,10.67,0,0,0,1.22-5.19V21.24a15.16,15.16,0,0,1,.09-1.64,5.54,5.54,0,0,1,.38-1.53,3,3,0,0,1,.81-1.13,2.2,2.2,0,0,1,1.42-.42h7.42a3,3,0,0,1,2.19.72,2.8,2.8,0,0,1,.69,2V71A1.49,1.49,0,0,1,400.1,72.36Z"/><path class="cls-1" d="M411.31,18.27a2.48,2.48,0,0,1,1-.9,1.52,1.52,0,0,1,1.08-.38l1.35,0h4.55a2.24,2.24,0,0,1,1.93.86,4.92,4.92,0,0,1,.86,1.89l.49,4.77a20.25,20.25,0,0,1,2.55-3,17.08,17.08,0,0,1,3.57-2.65,20.48,20.48,0,0,1,4.73-1.89,22.85,22.85,0,0,1,6-.72,22.37,22.37,0,0,1,9.45,1.91,20.19,20.19,0,0,1,7,5.25,22.7,22.7,0,0,1,4.29,7.83,31,31,0,0,1,1.47,9.67v30a3.42,3.42,0,0,1-.77,2.43,2.88,2.88,0,0,1-2.2.81h-6.84a3.24,3.24,0,0,1-2.41-.68,3.55,3.55,0,0,1-.61-2.38v-30a13.75,13.75,0,0,0-.81-4.65,12.73,12.73,0,0,0-2.36-4.07,11.49,11.49,0,0,0-3.85-2.88,12.6,12.6,0,0,0-9.61-.25,14,14,0,0,0-4.07,2.36A13,13,0,0,0,425,35.3a10.34,10.34,0,0,0-1.26,4.93V69.39a16.32,16.32,0,0,1-.09,1.71,5.36,5.36,0,0,1-.38,1.53,2.66,2.66,0,0,1-.83,1.08,2.28,2.28,0,0,1-1.4.41h-7.42a3,3,0,0,1-2.19-.7,2.73,2.73,0,0,1-.69-2V19.62A2.3,2.3,0,0,1,411.31,18.27Z"/><path class="cls-1" d="M513.41,67.59a29.15,29.15,0,0,1-3.49,3A24.54,24.54,0,0,1,505.83,73a25.63,25.63,0,0,1-4.64,1.6,21.85,21.85,0,0,1-5.1.58,27.59,27.59,0,0,1-11.32-2.32,28.83,28.83,0,0,1-9.14-6.32,29.32,29.32,0,0,1-6.09-9.38,31.13,31.13,0,0,1,0-23,28.83,28.83,0,0,1,15.23-15.71,27.75,27.75,0,0,1,11.32-2.31A22.65,22.65,0,0,1,505.76,18a24.89,24.89,0,0,1,7.43,5.34V2.7a2.7,2.7,0,0,1,.72-1.93A2.71,2.71,0,0,1,516,0h7.38a3,3,0,0,1,1.93.74,2.42,2.42,0,0,1,.9,2V71.42c0,1.79-1,2.7-2.88,2.7h-6.75a2.15,2.15,0,0,1-1.84-.68,6.78,6.78,0,0,1-.9-2ZM480,45.63a18.56,18.56,0,0,0,1.26,6.82,17.26,17.26,0,0,0,3.51,5.6A16.9,16.9,0,0,0,490,61.83a15.74,15.74,0,0,0,6.64,1.4,16.55,16.55,0,0,0,6.71-1.38,17.45,17.45,0,0,0,5.49-3.73,18.21,18.21,0,0,0,3.71-5.49A17.67,17.67,0,0,0,514,46v-.32a17.55,17.55,0,0,0-1.35-6.8A18.48,18.48,0,0,0,509,33.14a17.92,17.92,0,0,0-5.51-3.91,16,16,0,0,0-6.82-1.46A15.05,15.05,0,0,0,490,29.23a17.29,17.29,0,0,0-5.28,3.91,18,18,0,0,0-3.51,5.69A18.65,18.65,0,0,0,480,45.63Z"/></g></g></svg>